<svg width="12" height="14" viewBox="0 0 12 14" fill="none" xmlns="http://www.w3.org/2000/svg">
<path d="M6.3454 1.21831C7.27229 0.00591068 8.56088 0 8.56088 0C8.56088 0 8.75256 1.13986 7.83175 2.23792C6.84855 3.41039 5.731 3.21854 5.731 3.21854C5.731 3.21854 5.52116 2.29643 6.3454 1.21831ZM5.84889 4.01701C6.32573 4.01701 7.21072 3.36651 8.36265 3.36651C10.3455 3.36651 11.1256 4.76674 11.1256 4.76674C11.1256 4.76674 9.59991 5.54086 9.59991 7.41921C9.59991 9.53816 11.5005 10.2684 11.5005 10.2684C11.5005 10.2684 10.1719 13.9794 8.37741 13.9794C7.55321 13.9794 6.91244 13.4282 6.04402 13.4282C5.15903 13.4282 4.28081 14 3.70882 14C2.07018 14 0 10.4798 0 7.65003C0 4.86598 1.75227 3.40552 3.39583 3.40552C4.46429 3.40552 5.29342 4.01701 5.84889 4.01701Z" fill="#999999"/>
</svg>
