<svg width="21" height="24" viewBox="0 0 21 24" fill="none" xmlns="http://www.w3.org/2000/svg">
<path d="M4.53235 6.27406C4.78084 6.52048 5.11663 6.65874 5.46659 6.65874C5.81654 6.65874 6.15233 6.52048 6.40083 6.27406C6.52319 6.15278 6.62033 6.00845 6.68661 5.84943C6.7529 5.6904 6.78703 5.51982 6.78703 5.34753C6.78703 5.17524 6.7529 5.00466 6.68661 4.84564C6.62033 4.68661 6.52319 4.54229 6.40083 4.42101C6.15233 4.17459 5.81654 4.03633 5.46659 4.03633C5.11663 4.03633 4.78084 4.17459 4.53235 4.42101C4.01809 4.93355 4.01809 5.76323 4.53235 6.27406ZM19.6533 13.988C19.9737 13.6705 20.228 13.2927 20.4016 12.8763C20.5752 12.46 20.6645 12.0134 20.6645 11.5624C20.6645 11.1113 20.5752 10.6647 20.4016 10.2484C20.228 9.83207 19.9737 9.45425 19.6533 9.13677L11.4937 1.0286C10.8484 0.388352 9.97717 0.0275497 9.06812 0.0240828L3.47297 8.39041e-05C3.018 -0.00309353 2.56692 0.084005 2.14583 0.256338C1.72475 0.42867 1.34203 0.682813 1.01983 1.00406C0.697634 1.3253 0.442356 1.70726 0.268772 2.12783C0.0951881 2.5484 0.00674629 2.99922 0.00856972 3.4542L0.0497112 9.2362C0.057127 10.1382 0.420643 11.0008 1.06109 11.6361L9.10069 19.6243C9.74975 20.2672 10.6264 20.6279 11.54 20.6279C12.4536 20.6279 13.3303 20.2672 13.9793 19.6243L19.6533 13.988ZM18.4328 10.3487C18.593 10.5075 18.7202 10.6964 18.807 10.9045C18.8937 11.1127 18.9384 11.336 18.9384 11.5615C18.9384 11.787 18.8937 12.0103 18.807 12.2185C18.7202 12.4267 18.593 12.6156 18.4328 12.7743L12.7588 18.414C12.0851 19.0826 10.9932 19.0826 10.3195 18.414L2.27989 10.4241C1.96021 10.1063 1.77907 9.67499 1.77591 9.2242L1.73306 3.4422C1.73191 3.21453 1.776 2.98891 1.86275 2.77841C1.94951 2.56792 2.0772 2.37676 2.23843 2.21601C2.39965 2.05526 2.5912 1.92814 2.80195 1.84201C3.0127 1.75588 3.23845 1.71247 3.46612 1.71428L9.06127 1.73828C9.51609 1.73979 9.95204 1.92021 10.2749 2.24054L18.4345 10.3487H18.4328ZM20.5756 14.9993C20.8058 15.6156 20.8539 16.2851 20.7141 16.928C20.5743 17.5709 20.2525 18.1599 19.787 18.6249L16.4203 21.9916C15.7836 22.6283 15.0277 23.1334 14.1958 23.478C13.3639 23.8226 12.4722 24 11.5717 24C10.6712 24 9.77957 23.8226 8.94765 23.478C8.11572 23.1334 7.35981 22.6283 6.72309 21.9916L0.75425 16.0227C0.2719 15.541 0.000600815 14.8874 0 14.2057V12.8686L6.72309 19.5917C6.84137 19.71 6.96308 19.8231 7.08651 19.9294L7.93504 20.7796C8.41258 21.2572 8.97954 21.6361 9.60352 21.8946C10.2275 22.1531 10.8963 22.2862 11.5717 22.2862C12.2471 22.2862 12.9159 22.1531 13.5399 21.8946C14.1639 21.6361 14.7308 21.2572 15.2084 20.7796L16.0638 19.9242C16.1865 19.8176 16.3054 19.7066 16.4203 19.5917L19.787 16.225C20.135 15.8779 20.4039 15.4599 20.5756 14.9993Z" fill="black"/>
</svg>
